<mxfile host="app.diagrams.net" agent="Mozilla/5.0 (Windows NT 10.0; Win64; x64) AppleWebKit/537.36 (KHTML, like Gecko) Chrome/131.0.0.0 Safari/537.36 Edg/131.0.0.0" version="26.0.5">
  <diagram name="Page-1" id="ALjO8eT-gk-QnNklpEta">
    <mxGraphModel dx="1382" dy="77" grid="0" gridSize="10" guides="1" tooltips="1" connect="1" arrows="1" fold="1" page="0" pageScale="1" pageWidth="850" pageHeight="1100" math="0" shadow="0">
      <root>
        <mxCell id="0" />
        <mxCell id="1" parent="0" />
        <mxCell id="VGGrf39JVPqZf-1prJT_-53" value="" style="edgeStyle=none;curved=1;rounded=0;orthogonalLoop=1;jettySize=auto;html=1;fontSize=12;startSize=8;endSize=8;entryX=0;entryY=0.456;entryDx=0;entryDy=0;entryPerimeter=0;" edge="1" parent="1" source="VGGrf39JVPqZf-1prJT_-1" target="VGGrf39JVPqZf-1prJT_-8">
          <mxGeometry relative="1" as="geometry">
            <Array as="points">
              <mxPoint x="-6" y="620" />
            </Array>
          </mxGeometry>
        </mxCell>
        <mxCell id="VGGrf39JVPqZf-1prJT_-1" value="To do App&amp;nbsp;" style="whiteSpace=wrap;html=1;" vertex="1" parent="1">
          <mxGeometry x="-162" y="565" width="137" height="100" as="geometry" />
        </mxCell>
        <mxCell id="VGGrf39JVPqZf-1prJT_-3" value="Auth App&amp;nbsp;" style="rounded=0;whiteSpace=wrap;html=1;" vertex="1" parent="1">
          <mxGeometry x="-297" y="606" width="95" height="39" as="geometry" />
        </mxCell>
        <mxCell id="VGGrf39JVPqZf-1prJT_-46" value="" style="edgeStyle=none;curved=1;rounded=0;orthogonalLoop=1;jettySize=auto;html=1;fontSize=12;startSize=8;endSize=8;" edge="1" parent="1" source="VGGrf39JVPqZf-1prJT_-8" target="VGGrf39JVPqZf-1prJT_-19">
          <mxGeometry relative="1" as="geometry" />
        </mxCell>
        <mxCell id="VGGrf39JVPqZf-1prJT_-8" value="OTEL collector" style="rounded=0;whiteSpace=wrap;html=1;" vertex="1" parent="1">
          <mxGeometry x="24" y="457" width="86" height="342" as="geometry" />
        </mxCell>
        <mxCell id="VGGrf39JVPqZf-1prJT_-10" value="otel api/sdk" style="ellipse;whiteSpace=wrap;html=1;" vertex="1" parent="1">
          <mxGeometry x="-100" y="628" width="80" height="37" as="geometry" />
        </mxCell>
        <mxCell id="VGGrf39JVPqZf-1prJT_-11" value="" style="edgeStyle=none;orthogonalLoop=1;jettySize=auto;html=1;rounded=0;fontSize=12;startSize=8;endSize=8;curved=1;" edge="1" parent="1">
          <mxGeometry width="140" relative="1" as="geometry">
            <mxPoint x="-199" y="624" as="sourcePoint" />
            <mxPoint x="-163" y="627" as="targetPoint" />
            <Array as="points" />
          </mxGeometry>
        </mxCell>
        <mxCell id="VGGrf39JVPqZf-1prJT_-16" value="" style="shape=stencil(fZbdcgIhDIWfZm8zQAg/17Z9j85U606tdqz9e/tmZ0c0uJ47xP0I5JwEBl59bp8/1kNwn6fj4W39M76ctgM/DCGM++36OJ50NPDjwKvN4bh+PR6+9i/z74/n6ctp9H74nlb4nbmSKZeJCu5vngmZ6jzzNAO7cX8FVKEsBuBKrgKg9oAE8gkCbLeUhEoEQKSUDZDLeWYRKIl8MEDRmHwfyBrBG6Amyu4+kDxxMoB3jhwgYu7TVAsVkFcWCs4CTBEoF4RctKeOxHIf8IXYpikHikAIf+MNUW94AGSSaoAoFIE3AlOyeWU+p2E5S9yfQZcQILVuQOwZdJNoS9Ls3wA5u2XZTIHECqeJ9kDpSaauRiNVcAY1QhdBzeLBli5WazpkSsBLV25uRaqWRyFawTQzRRIQYirJzq5atkBqLfouwqUxLBepthWb10vrWZY6UOAeyKCCtDV625mm9gmUC4Wc3VLJMMIE1BsA2FW9JraVlQB7n3c9oMKhCLEvIM1zBPZ25/umNQ1tVEC2G+fFCC8g398O2hNQuQlVu752DBfA+q0ptnqO5JFmeuIuo9DY7KjY71UxdJV4EntifPWorW++R/dC4t7V3DlIB5cHx2bc7eb3yvX//QNFp+bHDT/+Aw==);lineShape=1;strokeColor=#66FF66;" vertex="1" parent="1">
          <mxGeometry x="440.8679608424759" y="805.8753124585194" width="4.672539772115215" height="4.665236216357243" as="geometry" />
        </mxCell>
        <mxCell id="VGGrf39JVPqZf-1prJT_-18" value="JAEGER" style="ellipse;whiteSpace=wrap;html=1;" vertex="1" parent="1">
          <mxGeometry x="203" y="460" width="114" height="153" as="geometry" />
        </mxCell>
        <mxCell id="VGGrf39JVPqZf-1prJT_-19" value="PROMETHEUS" style="ellipse;whiteSpace=wrap;html=1;" vertex="1" parent="1">
          <mxGeometry x="203" y="665" width="120" height="169" as="geometry" />
        </mxCell>
        <mxCell id="VGGrf39JVPqZf-1prJT_-39" value="GRAFANA" style="rounded=0;whiteSpace=wrap;html=1;" vertex="1" parent="1">
          <mxGeometry x="416" y="466" width="160" height="360" as="geometry" />
        </mxCell>
        <mxCell id="VGGrf39JVPqZf-1prJT_-43" value="" style="edgeStyle=none;orthogonalLoop=1;jettySize=auto;html=1;rounded=0;fontSize=12;startSize=8;endSize=8;curved=1;exitX=0.965;exitY=0.482;exitDx=0;exitDy=0;exitPerimeter=0;" edge="1" parent="1" source="VGGrf39JVPqZf-1prJT_-8" target="VGGrf39JVPqZf-1prJT_-18">
          <mxGeometry width="140" relative="1" as="geometry">
            <mxPoint x="101" y="624" as="sourcePoint" />
            <mxPoint x="270" y="635" as="targetPoint" />
            <Array as="points" />
          </mxGeometry>
        </mxCell>
        <mxCell id="VGGrf39JVPqZf-1prJT_-45" value="traces" style="text;strokeColor=none;fillColor=none;html=1;align=center;verticalAlign=middle;whiteSpace=wrap;rounded=0;fontSize=16;" vertex="1" parent="1">
          <mxGeometry x="141" y="600" width="60" height="30" as="geometry" />
        </mxCell>
        <mxCell id="VGGrf39JVPqZf-1prJT_-47" value="metrics" style="text;strokeColor=none;fillColor=none;html=1;align=center;verticalAlign=middle;whiteSpace=wrap;rounded=0;fontSize=16;" vertex="1" parent="1">
          <mxGeometry x="116" y="707" width="60" height="30" as="geometry" />
        </mxCell>
        <mxCell id="VGGrf39JVPqZf-1prJT_-50" style="edgeStyle=none;curved=1;rounded=0;orthogonalLoop=1;jettySize=auto;html=1;exitX=1;exitY=0.5;exitDx=0;exitDy=0;fontSize=12;startSize=8;endSize=8;entryX=0.006;entryY=0.436;entryDx=0;entryDy=0;entryPerimeter=0;" edge="1" parent="1" source="VGGrf39JVPqZf-1prJT_-18" target="VGGrf39JVPqZf-1prJT_-39">
          <mxGeometry relative="1" as="geometry">
            <mxPoint x="345" y="623" as="targetPoint" />
          </mxGeometry>
        </mxCell>
        <mxCell id="VGGrf39JVPqZf-1prJT_-51" style="edgeStyle=none;curved=1;rounded=0;orthogonalLoop=1;jettySize=auto;html=1;exitX=1;exitY=0.5;exitDx=0;exitDy=0;fontSize=12;startSize=8;endSize=8;" edge="1" parent="1" source="VGGrf39JVPqZf-1prJT_-19">
          <mxGeometry relative="1" as="geometry">
            <mxPoint x="411" y="652" as="targetPoint" />
          </mxGeometry>
        </mxCell>
      </root>
    </mxGraphModel>
  </diagram>
</mxfile>
